<svg data-v-423bf9ae="" xmlns="http://www.w3.org/2000/svg" viewBox="0 0 326.3330219893996 60" class="font"><!----><!----><!----><g data-v-423bf9ae="" id="51d7b779-7b58-40d8-a201-9410b675c37c" fill="white" transform="matrix(5.774783784855467,0,0,5.774783784855467,-1.443693497920492,-19.865257027175744)"><path d="M10.09 13.52C10.15 13.52 10.92 13.44 11.87 13.44C12.84 13.44 13.61 13.52 13.68 13.52C13.85 13.52 13.96 13.40 13.96 13.22C13.96 12.81 13.68 12.87 13.06 12.81C12.59 12.75 12.57 12.47 12.57 12.12L12.57 12.03C12.57 11.34 12.56 10.65 12.50 5.22C12.50 4.97 12.61 4.87 12.84 4.82C13.59 4.58 13.93 4.68 13.93 4.30C13.93 4.00 13.82 3.99 13.72 3.99L11.69 3.99C11.56 3.99 11.49 4.02 11.44 4.12C11.42 4.12 11.44 4.12 7.64 11.21C7.60 11.31 7.55 11.37 7.45 11.37C7.32 11.37 7.24 11.26 7.21 11.20L5.57 8.60L2.93 4.17C2.84 4.03 2.77 3.99 2.58 3.99L0.56 3.99C0.46 3.99 0.31 4.00 0.31 4.30C0.31 4.54 0.49 4.54 0.59 4.55C1.40 4.56 1.72 5.18 1.93 5.40C2.00 5.49 2.09 5.57 2.09 5.75C2.09 6.38 1.95 9.52 1.74 12.01C1.69 12.40 1.75 12.70 1.29 12.75C0.59 12.84 0.25 12.80 0.25 13.22C0.25 13.47 0.41 13.52 0.50 13.52C0.56 13.52 1.29 13.44 2.18 13.44C3.08 13.44 3.81 13.52 3.86 13.52C4.06 13.52 4.12 13.33 4.12 13.20C4.12 12.53 2.94 13.03 2.80 12.57C2.76 12.43 2.72 10.32 2.72 9.73C2.72 8.75 2.74 7.80 2.80 6.82C2.80 6.79 2.81 6.75 2.86 6.75C2.87 6.75 2.88 6.75 2.90 6.76C3.01 6.83 5.03 10.04 6.54 13.15C6.64 13.34 6.76 13.65 7.03 13.65C7.08 13.65 7.21 13.64 7.34 13.48C7.59 13.17 9.74 8.92 10.99 6.93C11.03 6.86 11.09 6.76 11.19 6.76C11.23 6.76 11.27 6.78 11.28 6.85C11.30 6.89 11.33 8.12 11.33 9.09L11.33 12.07C11.33 12.15 11.33 12.25 11.31 12.33C11.16 13.16 9.83 12.56 9.83 13.19C9.83 13.31 9.88 13.52 10.09 13.52ZM14.27 10.58C14.27 12.31 15.46 13.71 17.23 13.71C18.80 13.71 20.22 12.59 20.22 10.58C20.22 8.71 18.96 7.39 17.29 7.39C15.72 7.39 14.27 8.64 14.27 10.58ZM17.28 13.02C16.13 13.02 15.36 11.97 15.36 10.51C15.36 8.64 16.46 8.05 17.19 8.05C18.26 8.05 19.26 9.14 19.26 10.64C19.26 11.89 18.47 13.02 17.28 13.02ZM20.80 10.58C20.80 12.31 21.99 13.71 23.77 13.71C25.34 13.71 26.75 12.59 26.75 10.58C26.75 8.71 25.49 7.39 23.83 7.39C22.26 7.39 20.80 8.64 20.80 10.58ZM23.81 13.02C22.67 13.02 21.90 11.97 21.90 10.51C21.90 8.64 23.00 8.05 23.73 8.05C24.79 8.05 25.80 9.14 25.80 10.64C25.80 11.89 25.00 13.02 23.81 13.02ZM30.38 8.08C30.90 8.08 31.46 8.22 31.88 8.61C32.02 8.75 32.02 8.85 32.02 8.95L32.02 12.08C32.02 12.19 32.00 12.29 31.98 12.40C31.86 12.77 31.19 13.01 30.66 13.01C29.69 13.01 28.22 12.15 28.22 10.42C28.22 9.00 28.95 8.08 30.38 8.08ZM30.41 7.52L30.39 7.52C28.18 7.52 27.29 9.09 27.29 10.54C27.29 12.31 28.50 13.73 30.34 13.73C31.43 13.73 31.96 13.19 32.00 13.19C32.02 13.19 32.03 13.20 32.03 13.23L32.03 13.69C32.03 13.82 32.10 13.83 32.14 13.83C32.28 13.83 32.47 13.57 33.11 13.22C33.67 12.89 33.94 12.89 33.94 12.68C33.94 12.49 33.68 12.49 33.67 12.49C33.17 12.46 33.03 12.50 33.01 12.29C33.00 12.17 32.97 9.56 32.97 8.18C32.97 5.46 33.01 4.10 33.01 3.64C33.01 3.53 32.96 3.44 32.84 3.44C32.79 3.44 32.52 3.57 31.04 4.30C31.00 4.33 30.91 4.37 30.91 4.45C30.91 4.59 31.08 4.65 31.18 4.68C31.92 4.97 32.02 4.97 32.02 5.25L32.02 7.60C32.02 7.67 31.99 7.73 31.92 7.73C31.85 7.73 31.32 7.52 30.41 7.52ZM36.08 3.99L35.98 3.99C35.01 3.98 34.54 3.95 34.38 3.95C34.22 3.95 34.12 4.03 34.12 4.30C34.12 4.56 34.29 4.62 34.47 4.63C35.07 4.65 35.25 4.58 35.25 4.97L35.25 12.32L35.25 12.36C35.25 12.54 35.24 12.73 34.93 12.81C34.33 12.94 34.16 12.94 34.16 13.22C34.16 13.33 34.20 13.44 34.38 13.44L35.13 13.44C38.26 13.44 40.77 13.52 40.96 13.52C41.29 13.52 41.31 13.37 41.34 13.22C41.44 12.56 41.62 11.31 41.62 11.24C41.62 10.96 41.29 10.92 41.20 10.92C41.12 10.92 41.05 10.96 40.99 11.03C40.91 11.13 40.54 12.01 40.40 12.22C40.17 12.59 39.87 12.60 39.63 12.60L39.59 12.60L36.92 12.60C36.58 12.60 36.55 12.39 36.55 12.15L36.55 5.05C36.55 4.58 36.75 4.68 37.70 4.65C37.86 4.65 38.01 4.61 38.01 4.33C38.01 4.10 38.00 3.95 37.77 3.95C37.60 3.95 37.09 3.99 36.08 3.99ZM43.30 4.79C43.30 5.17 43.60 5.45 43.96 5.45C44.32 5.45 44.65 5.15 44.65 4.77C44.65 4.42 44.34 4.13 43.97 4.13C43.61 4.13 43.30 4.42 43.30 4.79ZM43.16 11.75L43.16 12.40C43.16 12.66 43.13 12.85 42.78 12.91C42.15 12.99 42.10 12.96 42.10 13.29C42.10 13.43 42.17 13.52 42.31 13.52C42.35 13.52 42.90 13.44 43.60 13.44C44.28 13.44 44.84 13.52 44.88 13.52C45.04 13.52 45.05 13.33 45.05 13.22C45.05 12.98 44.88 12.99 44.42 12.92C44.11 12.88 44.10 12.84 44.10 11.13L44.10 10.67C44.10 8.96 44.18 7.60 44.18 7.49C44.18 7.32 44.07 7.27 43.99 7.27L43.97 7.27C43.90 7.27 43.89 7.29 42.43 7.99C42.28 8.06 42.06 8.12 42.06 8.29C42.06 8.40 42.15 8.44 42.22 8.47C43.12 8.83 43.18 8.82 43.18 9.04C43.18 9.31 43.16 10.12 43.16 11.75ZM47.22 8.16C47.22 8.15 47.24 8.11 47.24 8.08L47.24 7.53C47.24 7.42 47.19 7.32 47.07 7.32C47.01 7.32 46.97 7.35 46.93 7.38C45.63 8.08 45.60 8.06 45.60 8.18L45.60 8.19C45.60 8.25 45.64 8.29 45.68 8.33C46.31 8.81 46.31 8.78 46.31 9.11L46.31 12.46C46.31 12.70 46.30 12.88 45.95 12.94C45.51 13.01 45.40 12.99 45.40 13.27C45.40 13.47 45.54 13.52 45.63 13.52C45.67 13.52 46.19 13.44 46.86 13.44C47.54 13.44 48.12 13.54 48.16 13.54C48.29 13.54 48.34 13.43 48.34 13.29C48.34 12.98 48.17 13.01 47.59 12.91C47.29 12.87 47.28 12.67 47.28 12.52L47.28 12.47L47.28 9.16C47.28 9.10 47.28 9.03 47.29 8.97C47.35 8.72 47.92 8.06 48.73 8.06C49.06 8.06 49.83 8.19 50.13 8.90C50.30 9.32 50.32 10.16 50.32 10.42L50.32 12.59C50.32 12.82 50.27 12.89 50.09 12.92C49.53 13.02 49.36 12.99 49.36 13.24C49.36 13.38 49.39 13.52 49.56 13.52C49.59 13.52 50.09 13.44 50.71 13.44C51.41 13.44 51.76 13.52 51.88 13.52C51.97 13.52 52.09 13.48 52.09 13.24C52.09 13.15 52.08 13.02 51.90 12.99C51.41 12.92 51.23 12.95 51.23 12.56L51.23 12.53C51.23 10.60 51.24 10.35 51.24 10.11C51.24 9.87 51.24 9.63 51.21 9.39C51.07 7.66 49.85 7.38 49.22 7.38L49.20 7.38C47.99 7.39 47.33 8.22 47.28 8.22L47.26 8.22C47.25 8.22 47.22 8.20 47.22 8.16ZM52.79 8.33L53.24 8.33C53.33 8.33 53.34 8.39 53.34 8.46C53.34 8.76 53.28 10.93 53.28 11.55C53.28 11.70 53.28 11.84 53.30 12.00C53.40 13.31 54.15 13.71 54.71 13.71C55.48 13.71 56.17 13.01 56.66 12.45C56.69 12.40 56.76 12.32 56.76 12.21C56.76 12.08 56.66 11.96 56.50 11.96C56.20 11.96 55.65 12.80 54.98 12.80C54.39 12.80 54.26 12.25 54.26 11.76C54.26 11.42 54.26 11.10 54.28 8.48C54.28 8.39 54.32 8.36 54.42 8.36L56.06 8.36C56.18 8.36 56.25 8.34 56.31 8.29C56.38 8.20 56.43 7.97 56.43 7.88C56.43 7.62 56.20 7.62 56.07 7.62C56.03 7.62 56.00 7.60 55.96 7.60L54.70 7.60C54.53 7.60 54.42 7.56 54.42 7.32C54.42 7.13 54.43 6.54 54.43 6.34C54.43 6.16 54.33 6.12 54.25 6.12C54.10 6.12 54.01 6.30 53.97 6.37C53.21 7.66 52.51 7.91 52.51 8.15C52.51 8.32 52.67 8.33 52.79 8.33Z"></path></g><!----><!----></svg>